<svg xmlns="http://www.w3.org/2000/svg" xmlns:xlink="http://www.w3.org/1999/xlink" width="500" zoomAndPan="magnify" viewBox="0 0 375 374.999991" height="500" preserveAspectRatio="xMidYMid meet" version="1.0"><defs><clipPath id="id1"><path d="M 58.226562 39 L 316.976562 39 L 316.976562 299 L 58.226562 299 Z M 58.226562 39 " clip-rule="nonzero"/></clipPath></defs><g clip-path="url(#id1)"><path fill="#aa8dd8" d="M 316.976562 168.734375 C 316.976562 170.851562 316.925781 172.964844 316.820312 175.078125 C 316.71875 177.191406 316.5625 179.300781 316.355469 181.40625 C 316.148438 183.511719 315.886719 185.609375 315.578125 187.703125 C 315.265625 189.796875 314.90625 191.878906 314.492188 193.953125 C 314.078125 196.027344 313.613281 198.09375 313.101562 200.144531 C 312.585938 202.195312 312.019531 204.234375 311.40625 206.261719 C 310.792969 208.285156 310.128906 210.292969 309.414062 212.285156 C 308.699219 214.277344 307.9375 216.25 307.128906 218.203125 C 306.320312 220.160156 305.460938 222.09375 304.554688 224.003906 C 303.652344 225.917969 302.699219 227.804688 301.699219 229.671875 C 300.703125 231.539062 299.660156 233.378906 298.570312 235.191406 C 297.480469 237.007812 296.351562 238.792969 295.171875 240.554688 C 293.996094 242.3125 292.777344 244.042969 291.515625 245.742188 C 290.257812 247.441406 288.953125 249.105469 287.609375 250.742188 C 286.265625 252.378906 284.882812 253.980469 283.460938 255.546875 C 282.039062 257.113281 280.582031 258.644531 279.085938 260.140625 C 277.585938 261.636719 276.054688 263.097656 274.484375 264.515625 C 272.917969 265.9375 271.3125 267.320312 269.675781 268.660156 C 268.039062 270.003906 266.371094 271.304688 264.671875 272.566406 C 262.96875 273.824219 261.238281 275.042969 259.480469 276.21875 C 257.71875 277.394531 255.929688 278.527344 254.113281 279.613281 C 252.296875 280.699219 250.457031 281.742188 248.589844 282.742188 C 246.722656 283.738281 244.832031 284.6875 242.917969 285.59375 C 241.003906 286.496094 239.066406 287.355469 237.113281 288.164062 C 235.15625 288.972656 233.179688 289.734375 231.1875 290.449219 C 229.195312 291.160156 227.183594 291.824219 225.15625 292.4375 C 223.132812 293.050781 221.089844 293.617188 219.039062 294.128906 C 216.984375 294.644531 214.917969 295.109375 212.84375 295.519531 C 210.765625 295.933594 208.679688 296.296875 206.585938 296.605469 C 204.492188 296.914062 202.390625 297.175781 200.285156 297.382812 C 198.175781 297.589844 196.066406 297.746094 193.949219 297.847656 C 191.835938 297.953125 189.71875 298.003906 187.601562 298.003906 C 185.484375 298.003906 183.367188 297.953125 181.253906 297.847656 C 179.140625 297.746094 177.027344 297.589844 174.921875 297.382812 C 172.8125 297.175781 170.714844 296.914062 168.617188 296.605469 C 166.523438 296.296875 164.4375 295.933594 162.363281 295.519531 C 160.285156 295.109375 158.21875 294.644531 156.167969 294.128906 C 154.113281 293.617188 152.074219 293.050781 150.046875 292.4375 C 148.019531 291.824219 146.011719 291.160156 144.015625 290.449219 C 142.023438 289.734375 140.046875 288.972656 138.09375 288.164062 C 136.136719 287.355469 134.203125 286.496094 132.289062 285.59375 C 130.375 284.6875 128.484375 283.738281 126.617188 282.742188 C 124.746094 281.742188 122.90625 280.699219 121.089844 279.613281 C 119.273438 278.527344 117.484375 277.394531 115.726562 276.21875 C 113.964844 275.042969 112.234375 273.824219 110.535156 272.566406 C 108.832031 271.304688 107.164062 270.003906 105.527344 268.660156 C 103.890625 267.320312 102.289062 265.9375 100.71875 264.515625 C 99.152344 263.097656 97.617188 261.636719 96.121094 260.140625 C 94.625 258.644531 93.164062 257.113281 91.742188 255.546875 C 90.320312 253.980469 88.9375 252.378906 87.59375 250.742188 C 86.25 249.105469 84.949219 247.441406 83.6875 245.742188 C 82.425781 244.042969 81.207031 242.3125 80.03125 240.554688 C 78.855469 238.792969 77.722656 237.007812 76.632812 235.191406 C 75.546875 233.378906 74.5 231.539062 73.503906 229.671875 C 72.503906 227.804688 71.554688 225.917969 70.648438 224.003906 C 69.742188 222.09375 68.886719 220.160156 68.074219 218.203125 C 67.265625 216.25 66.503906 214.277344 65.789062 212.285156 C 65.078125 210.292969 64.414062 208.285156 63.796875 206.261719 C 63.183594 204.234375 62.617188 202.195312 62.105469 200.144531 C 61.589844 198.09375 61.125 196.027344 60.714844 193.953125 C 60.300781 191.878906 59.9375 189.796875 59.628906 187.703125 C 59.316406 185.609375 59.058594 183.511719 58.851562 181.40625 C 58.644531 179.300781 58.488281 177.191406 58.382812 175.078125 C 58.277344 172.964844 58.226562 170.851562 58.226562 168.734375 C 58.226562 166.621094 58.277344 164.503906 58.382812 162.390625 C 58.488281 160.277344 58.644531 158.167969 58.851562 156.0625 C 59.058594 153.960938 59.316406 151.859375 59.628906 149.765625 C 59.9375 147.675781 60.300781 145.589844 60.714844 143.515625 C 61.125 141.441406 61.589844 139.378906 62.105469 137.324219 C 62.617188 135.273438 63.183594 133.234375 63.796875 131.210938 C 64.414062 129.1875 65.078125 127.175781 65.789062 125.183594 C 66.503906 123.195312 67.265625 121.21875 68.074219 119.265625 C 68.886719 117.3125 69.742188 115.378906 70.648438 113.464844 C 71.554688 111.554688 72.503906 109.664062 73.503906 107.796875 C 74.5 105.933594 75.546875 104.09375 76.632812 102.277344 C 77.722656 100.460938 78.855469 98.675781 80.03125 96.917969 C 81.207031 95.15625 82.425781 93.429688 83.6875 91.730469 C 84.949219 90.03125 86.25 88.363281 87.59375 86.726562 C 88.9375 85.09375 90.320312 83.492188 91.742188 81.921875 C 93.164062 80.355469 94.625 78.824219 96.121094 77.328125 C 97.617188 75.832031 99.152344 74.375 100.71875 72.953125 C 102.289062 71.53125 103.890625 70.152344 105.527344 68.808594 C 107.164062 67.464844 108.832031 66.164062 110.535156 64.90625 C 112.234375 63.644531 113.964844 62.425781 115.726562 61.25 C 117.484375 60.074219 119.273438 58.945312 121.089844 57.855469 C 122.90625 56.769531 124.746094 55.726562 126.617188 54.730469 C 128.484375 53.730469 130.375 52.78125 132.289062 51.875 C 134.203125 50.972656 136.136719 50.113281 138.09375 49.304688 C 140.046875 48.496094 142.023438 47.734375 144.015625 47.023438 C 146.011719 46.308594 148.019531 45.644531 150.046875 45.03125 C 152.074219 44.417969 154.113281 43.855469 156.167969 43.339844 C 158.21875 42.824219 160.285156 42.363281 162.363281 41.949219 C 164.4375 41.535156 166.523438 41.175781 168.617188 40.863281 C 170.714844 40.554688 172.8125 40.296875 174.921875 40.089844 C 177.027344 39.878906 179.140625 39.726562 181.253906 39.621094 C 183.367188 39.515625 185.484375 39.464844 187.601562 39.464844 C 189.71875 39.464844 191.835938 39.515625 193.949219 39.621094 C 196.066406 39.726562 198.175781 39.878906 200.285156 40.089844 C 202.390625 40.296875 204.492188 40.554688 206.585938 40.863281 C 208.679688 41.175781 210.765625 41.535156 212.84375 41.949219 C 214.917969 42.363281 216.984375 42.824219 219.039062 43.339844 C 221.089844 43.855469 223.132812 44.417969 225.15625 45.03125 C 227.183594 45.644531 229.195312 46.308594 231.1875 47.023438 C 233.179688 47.734375 235.15625 48.496094 237.113281 49.304688 C 239.066406 50.113281 241.003906 50.972656 242.917969 51.875 C 244.832031 52.78125 246.722656 53.730469 248.589844 54.730469 C 250.457031 55.726562 252.296875 56.769531 254.113281 57.855469 C 255.929688 58.945312 257.71875 60.074219 259.480469 61.25 C 261.238281 62.425781 262.96875 63.644531 264.671875 64.90625 C 266.371094 66.164062 268.039062 67.464844 269.675781 68.808594 C 271.3125 70.152344 272.917969 71.53125 274.484375 72.953125 C 276.054688 74.375 277.585938 75.832031 279.085938 77.328125 C 280.582031 78.824219 282.039062 80.355469 283.460938 81.921875 C 284.882812 83.492188 286.265625 85.09375 287.609375 86.726562 C 288.953125 88.363281 290.257812 90.03125 291.515625 91.730469 C 292.777344 93.429688 293.996094 95.15625 295.171875 96.917969 C 296.351562 98.675781 297.480469 100.460938 298.570312 102.277344 C 299.660156 104.09375 300.703125 105.933594 301.699219 107.796875 C 302.699219 109.664062 303.652344 111.554688 304.554688 113.464844 C 305.460938 115.378906 306.320312 117.3125 307.128906 119.265625 C 307.9375 121.21875 308.699219 123.195312 309.414062 125.183594 C 310.128906 127.175781 310.792969 129.1875 311.40625 131.210938 C 312.019531 133.234375 312.585938 135.273438 313.101562 137.324219 C 313.613281 139.378906 314.078125 141.441406 314.492188 143.515625 C 314.90625 145.589844 315.265625 147.675781 315.578125 149.765625 C 315.886719 151.859375 316.148438 153.960938 316.355469 156.0625 C 316.5625 158.167969 316.71875 160.277344 316.820312 162.390625 C 316.925781 164.503906 316.976562 166.621094 316.976562 168.734375 Z M 316.976562 168.734375 " fill-opacity="1" fill-rule="nonzero"/></g><path fill="#744eaa" d="M 271.070312 152.054688 C 271.070312 153.148438 271.015625 154.238281 270.910156 155.324219 C 270.800781 156.414062 270.640625 157.492188 270.429688 158.5625 C 270.214844 159.636719 269.949219 160.695312 269.632812 161.738281 C 269.316406 162.785156 268.945312 163.8125 268.527344 164.820312 C 268.109375 165.832031 267.644531 166.816406 267.128906 167.78125 C 266.613281 168.746094 266.050781 169.679688 265.441406 170.589844 C 264.835938 171.496094 264.183594 172.375 263.492188 173.21875 C 262.796875 174.0625 262.0625 174.871094 261.292969 175.644531 C 260.519531 176.417969 259.707031 177.148438 258.863281 177.84375 C 258.019531 178.535156 257.140625 179.1875 256.230469 179.792969 C 255.324219 180.398438 254.386719 180.960938 253.421875 181.476562 C 252.457031 181.992188 251.46875 182.457031 250.460938 182.875 C 249.449219 183.292969 248.421875 183.660156 247.375 183.976562 C 246.328125 184.296875 245.269531 184.5625 244.195312 184.773438 C 243.125 184.988281 242.042969 185.148438 240.957031 185.253906 C 239.867188 185.363281 238.777344 185.414062 237.683594 185.414062 C 236.589844 185.414062 235.5 185.363281 234.410156 185.253906 C 233.320312 185.148438 232.242188 184.988281 231.167969 184.773438 C 230.097656 184.5625 229.039062 184.296875 227.992188 183.976562 C 226.945312 183.660156 225.917969 183.292969 224.90625 182.875 C 223.894531 182.457031 222.910156 181.992188 221.945312 181.476562 C 220.980469 180.960938 220.042969 180.398438 219.132812 179.792969 C 218.226562 179.1875 217.347656 178.535156 216.503906 177.84375 C 215.65625 177.148438 214.847656 176.417969 214.074219 175.644531 C 213.300781 174.871094 212.566406 174.0625 211.875 173.21875 C 211.179688 172.375 210.53125 171.496094 209.921875 170.589844 C 209.316406 169.679688 208.753906 168.746094 208.238281 167.78125 C 207.722656 166.816406 207.253906 165.832031 206.835938 164.820312 C 206.417969 163.8125 206.050781 162.785156 205.734375 161.738281 C 205.417969 160.695312 205.152344 159.636719 204.9375 158.5625 C 204.722656 157.492188 204.5625 156.414062 204.457031 155.324219 C 204.347656 154.238281 204.296875 153.148438 204.296875 152.054688 C 204.296875 150.960938 204.347656 149.871094 204.457031 148.785156 C 204.5625 147.699219 204.722656 146.617188 204.9375 145.546875 C 205.152344 144.476562 205.417969 143.417969 205.734375 142.371094 C 206.050781 141.324219 206.417969 140.296875 206.835938 139.289062 C 207.253906 138.28125 207.722656 137.292969 208.238281 136.328125 C 208.753906 135.367188 209.316406 134.429688 209.921875 133.519531 C 210.53125 132.613281 211.179688 131.738281 211.875 130.890625 C 212.566406 130.046875 213.300781 129.238281 214.074219 128.464844 C 214.847656 127.695312 215.65625 126.960938 216.503906 126.269531 C 217.347656 125.574219 218.226562 124.925781 219.132812 124.316406 C 220.042969 123.710938 220.980469 123.148438 221.945312 122.632812 C 222.910156 122.121094 223.894531 121.652344 224.90625 121.234375 C 225.917969 120.816406 226.945312 120.449219 227.992188 120.132812 C 229.039062 119.816406 230.097656 119.550781 231.167969 119.335938 C 232.242188 119.125 233.320312 118.964844 234.410156 118.855469 C 235.5 118.75 236.589844 118.695312 237.683594 118.695312 C 238.777344 118.695312 239.867188 118.75 240.957031 118.855469 C 242.042969 118.964844 243.125 119.125 244.195312 119.335938 C 245.269531 119.550781 246.328125 119.816406 247.375 120.132812 C 248.421875 120.449219 249.449219 120.816406 250.460938 121.234375 C 251.46875 121.652344 252.457031 122.121094 253.421875 122.632812 C 254.386719 123.148438 255.324219 123.710938 256.230469 124.316406 C 257.140625 124.925781 258.019531 125.574219 258.863281 126.269531 C 259.707031 126.960938 260.519531 127.695312 261.292969 128.464844 C 262.0625 129.238281 262.796875 130.046875 263.492188 130.890625 C 264.183594 131.738281 264.835938 132.613281 265.441406 133.519531 C 266.050781 134.429688 266.613281 135.367188 267.128906 136.328125 C 267.644531 137.292969 268.109375 138.28125 268.527344 139.289062 C 268.945312 140.296875 269.316406 141.324219 269.632812 142.371094 C 269.949219 143.417969 270.214844 144.476562 270.429688 145.546875 C 270.640625 146.617188 270.800781 147.699219 270.910156 148.785156 C 271.015625 149.871094 271.070312 150.960938 271.070312 152.054688 Z M 271.070312 152.054688 " fill-opacity="1" fill-rule="nonzero"/><path fill="#744eaa" d="M 187.601562 202.09375 C 187.601562 202.914062 187.5625 203.730469 187.480469 204.546875 C 187.402344 205.363281 187.28125 206.171875 187.121094 206.976562 C 186.960938 207.78125 186.761719 208.574219 186.523438 209.359375 C 186.285156 210.140625 186.011719 210.914062 185.695312 211.667969 C 185.382812 212.425781 185.03125 213.167969 184.644531 213.890625 C 184.257812 214.613281 183.835938 215.3125 183.382812 215.996094 C 182.925781 216.675781 182.4375 217.332031 181.917969 217.96875 C 181.398438 218.601562 180.847656 219.207031 180.269531 219.785156 C 179.6875 220.367188 179.082031 220.914062 178.449219 221.4375 C 177.8125 221.957031 177.15625 222.441406 176.472656 222.898438 C 175.792969 223.351562 175.089844 223.773438 174.367188 224.160156 C 173.640625 224.546875 172.902344 224.898438 172.144531 225.210938 C 171.386719 225.523438 170.617188 225.800781 169.832031 226.039062 C 169.046875 226.273438 168.25 226.472656 167.445312 226.632812 C 166.644531 226.792969 165.832031 226.914062 165.015625 226.996094 C 164.199219 227.074219 163.382812 227.113281 162.5625 227.113281 C 161.742188 227.113281 160.921875 227.074219 160.109375 226.996094 C 159.292969 226.914062 158.480469 226.792969 157.675781 226.632812 C 156.871094 226.472656 156.078125 226.273438 155.292969 226.039062 C 154.507812 225.800781 153.738281 225.523438 152.980469 225.210938 C 152.222656 224.898438 151.480469 224.546875 150.757812 224.160156 C 150.035156 223.773438 149.332031 223.351562 148.648438 222.898438 C 147.96875 222.441406 147.308594 221.957031 146.675781 221.4375 C 146.042969 220.914062 145.4375 220.367188 144.855469 219.785156 C 144.277344 219.207031 143.726562 218.601562 143.207031 217.96875 C 142.683594 217.332031 142.199219 216.675781 141.742188 215.996094 C 141.285156 215.3125 140.863281 214.613281 140.476562 213.890625 C 140.089844 213.167969 139.742188 212.425781 139.425781 211.667969 C 139.113281 210.914062 138.839844 210.140625 138.601562 209.359375 C 138.363281 208.574219 138.164062 207.78125 138.003906 206.976562 C 137.84375 206.171875 137.722656 205.363281 137.640625 204.546875 C 137.5625 203.730469 137.523438 202.914062 137.523438 202.09375 C 137.523438 201.277344 137.5625 200.457031 137.640625 199.640625 C 137.722656 198.828125 137.84375 198.015625 138.003906 197.214844 C 138.164062 196.410156 138.363281 195.617188 138.601562 194.832031 C 138.839844 194.046875 139.113281 193.277344 139.425781 192.519531 C 139.742188 191.761719 140.089844 191.023438 140.476562 190.300781 C 140.863281 189.578125 141.285156 188.875 141.742188 188.195312 C 142.199219 187.511719 142.683594 186.855469 143.207031 186.222656 C 143.726562 185.589844 144.277344 184.984375 144.855469 184.402344 C 145.4375 183.824219 146.042969 183.273438 146.675781 182.753906 C 147.308594 182.234375 147.96875 181.746094 148.648438 181.292969 C 149.332031 180.835938 150.035156 180.414062 150.757812 180.03125 C 151.480469 179.644531 152.222656 179.292969 152.980469 178.980469 C 153.738281 178.664062 154.507812 178.390625 155.292969 178.152344 C 156.078125 177.914062 156.871094 177.714844 157.675781 177.554688 C 158.480469 177.394531 159.292969 177.277344 160.109375 177.195312 C 160.921875 177.113281 161.742188 177.074219 162.5625 177.074219 C 163.382812 177.074219 164.199219 177.113281 165.015625 177.195312 C 165.832031 177.277344 166.644531 177.394531 167.445312 177.554688 C 168.25 177.714844 169.046875 177.914062 169.832031 178.152344 C 170.617188 178.390625 171.386719 178.664062 172.144531 178.980469 C 172.902344 179.292969 173.640625 179.644531 174.367188 180.03125 C 175.089844 180.414062 175.792969 180.835938 176.472656 181.292969 C 177.15625 181.746094 177.8125 182.234375 178.449219 182.753906 C 179.082031 183.273438 179.6875 183.824219 180.269531 184.402344 C 180.847656 184.984375 181.398438 185.589844 181.917969 186.222656 C 182.4375 186.855469 182.925781 187.511719 183.382812 188.195312 C 183.835938 188.875 184.257812 189.578125 184.644531 190.300781 C 185.03125 191.023438 185.382812 191.761719 185.695312 192.519531 C 186.011719 193.277344 186.285156 194.046875 186.523438 194.832031 C 186.761719 195.617188 186.960938 196.410156 187.121094 197.214844 C 187.28125 198.015625 187.402344 198.828125 187.480469 199.640625 C 187.5625 200.457031 187.601562 201.277344 187.601562 202.09375 Z M 187.601562 202.09375 " fill-opacity="1" fill-rule="nonzero"/><path fill="#744eaa" d="M 187.601562 85.335938 C 187.601562 85.882812 187.574219 86.425781 187.523438 86.96875 C 187.46875 87.515625 187.386719 88.054688 187.28125 88.589844 C 187.175781 89.125 187.042969 89.65625 186.882812 90.175781 C 186.726562 90.699219 186.539062 91.214844 186.332031 91.71875 C 186.121094 92.222656 185.890625 92.714844 185.632812 93.199219 C 185.375 93.679688 185.09375 94.148438 184.789062 94.601562 C 184.484375 95.054688 184.160156 95.496094 183.8125 95.917969 C 183.464844 96.339844 183.097656 96.742188 182.710938 97.128906 C 182.328125 97.515625 181.921875 97.882812 181.5 98.230469 C 181.078125 98.574219 180.636719 98.902344 180.183594 99.203125 C 179.730469 99.507812 179.261719 99.789062 178.777344 100.046875 C 178.296875 100.304688 177.800781 100.535156 177.296875 100.746094 C 176.792969 100.953125 176.277344 101.136719 175.753906 101.296875 C 175.230469 101.457031 174.703125 101.589844 174.164062 101.695312 C 173.628906 101.800781 173.089844 101.882812 172.546875 101.933594 C 172 101.988281 171.457031 102.015625 170.910156 102.015625 C 170.363281 102.015625 169.816406 101.988281 169.273438 101.933594 C 168.726562 101.882812 168.1875 101.800781 167.652344 101.695312 C 167.117188 101.589844 166.585938 101.457031 166.0625 101.296875 C 165.539062 101.136719 165.027344 100.953125 164.519531 100.746094 C 164.015625 100.535156 163.523438 100.304688 163.039062 100.046875 C 162.558594 99.789062 162.089844 99.507812 161.632812 99.203125 C 161.179688 98.902344 160.742188 98.574219 160.320312 98.230469 C 159.894531 97.882812 159.492188 97.515625 159.105469 97.128906 C 158.71875 96.742188 158.351562 96.339844 158.003906 95.917969 C 157.65625 95.496094 157.332031 95.054688 157.027344 94.601562 C 156.726562 94.148438 156.445312 93.679688 156.1875 93.199219 C 155.929688 92.714844 155.695312 92.222656 155.484375 91.71875 C 155.277344 91.214844 155.09375 90.699219 154.933594 90.175781 C 154.773438 89.65625 154.644531 89.125 154.535156 88.589844 C 154.429688 88.054688 154.347656 87.515625 154.296875 86.96875 C 154.242188 86.425781 154.214844 85.882812 154.214844 85.335938 C 154.214844 84.789062 154.242188 84.242188 154.296875 83.699219 C 154.347656 83.15625 154.429688 82.617188 154.535156 82.082031 C 154.640625 81.546875 154.773438 81.015625 154.933594 80.492188 C 155.09375 79.96875 155.277344 79.457031 155.484375 78.953125 C 155.695312 78.449219 155.929688 77.953125 156.1875 77.472656 C 156.445312 76.992188 156.726562 76.523438 157.027344 76.070312 C 157.332031 75.613281 157.65625 75.175781 158.003906 74.753906 C 158.351562 74.332031 158.71875 73.925781 159.105469 73.539062 C 159.492188 73.15625 159.894531 72.789062 160.320312 72.441406 C 160.742188 72.09375 161.179688 71.769531 161.632812 71.464844 C 162.089844 71.164062 162.558594 70.882812 163.039062 70.625 C 163.523438 70.367188 164.015625 70.132812 164.519531 69.925781 C 165.027344 69.714844 165.539062 69.53125 166.0625 69.375 C 166.585938 69.214844 167.117188 69.082031 167.652344 68.976562 C 168.1875 68.871094 168.726562 68.789062 169.273438 68.734375 C 169.816406 68.683594 170.363281 68.65625 170.910156 68.65625 C 171.457031 68.65625 172 68.683594 172.546875 68.734375 C 173.089844 68.789062 173.628906 68.871094 174.164062 68.976562 C 174.703125 69.082031 175.230469 69.214844 175.753906 69.375 C 176.277344 69.53125 176.792969 69.714844 177.296875 69.925781 C 177.800781 70.132812 178.296875 70.367188 178.777344 70.625 C 179.261719 70.882812 179.730469 71.164062 180.183594 71.464844 C 180.636719 71.769531 181.078125 72.09375 181.5 72.441406 C 181.921875 72.789062 182.328125 73.15625 182.710938 73.539062 C 183.097656 73.925781 183.464844 74.332031 183.8125 74.753906 C 184.160156 75.175781 184.484375 75.613281 184.789062 76.070312 C 185.09375 76.523438 185.375 76.992188 185.632812 77.472656 C 185.890625 77.953125 186.121094 78.449219 186.332031 78.953125 C 186.539062 79.457031 186.726562 79.96875 186.882812 80.492188 C 187.042969 81.015625 187.175781 81.546875 187.28125 82.082031 C 187.386719 82.617188 187.46875 83.15625 187.523438 83.699219 C 187.574219 84.242188 187.601562 84.789062 187.601562 85.335938 Z M 187.601562 85.335938 " fill-opacity="1" fill-rule="nonzero"/><path fill="#bf6952" d="M 283.765625 278.65625 L 91.4375 278.65625 L 87.441406 318.855469 C 87.441406 335.535156 104.132812 335.535156 104.132812 335.535156 L 271.070312 335.535156 C 271.070312 335.535156 287.761719 335.535156 287.761719 318.855469 Z M 283.765625 278.65625 " fill-opacity="1" fill-rule="nonzero"/><path fill="#d79e84" d="M 284.375 284.761719 L 283.765625 278.65625 C 282.589844 272.5 277.339844 268.816406 271.070312 268.816406 L 104.132812 268.816406 C 97.867188 268.816406 92.617188 272.5 91.4375 278.65625 L 90.828125 284.761719 Z M 284.375 284.761719 " fill-opacity="1" fill-rule="nonzero"/></svg>