<svg xmlns="http://www.w3.org/2000/svg" xmlns:xlink="http://www.w3.org/1999/xlink" width="500" zoomAndPan="magnify" viewBox="0 0 375 374.999991" height="500" preserveAspectRatio="xMidYMid meet" version="1.0"><defs><clipPath id="id1"><path d="M 69 276 L 307.457031 276 L 307.457031 333 L 69 333 Z M 69 276 " clip-rule="nonzero"/></clipPath></defs><g clip-path="url(#id1)"><path fill="#66757f" d="M 307.457031 332.277344 L 307.457031 324.347656 C 307.457031 298.082031 286.171875 276.78125 259.929688 276.78125 L 117.355469 276.78125 C 91.113281 276.78125 69.832031 298.082031 69.832031 324.347656 L 69.832031 332.277344 Z M 307.457031 332.277344 " fill-opacity="1" fill-rule="nonzero"/></g><path fill="#ef9645" d="M 141.117188 264.746094 C 154.363281 277.230469 170.789062 284.707031 188.644531 284.707031 C 206.496094 284.707031 222.917969 277.222656 236.167969 264.746094 L 236.167969 252.996094 L 141.117188 252.996094 Z M 141.117188 264.746094 " fill-opacity="1" fill-rule="nonzero"/><path fill="#66757f" d="M 257.949219 208.875 C 267.359375 210.523438 278.695312 209.898438 277.085938 216.144531 C 273.292969 230.84375 256.460938 225.398438 253.492188 225.5625 C 250.519531 225.722656 257.949219 208.875 257.949219 208.875 Z M 257.949219 208.875 " fill-opacity="1" fill-rule="nonzero"/><path fill="#292f33" d="M 260.421875 210.539062 C 275.273438 212.523438 280.546875 213.835938 269.65625 218.136719 C 263.542969 220.554688 251.890625 256.214844 243.273438 250.785156 C 234.664062 245.351562 260.421875 210.539062 260.421875 210.539062 Z M 260.421875 210.539062 " fill-opacity="1" fill-rule="nonzero"/><path fill="#66757f" d="M 119.375 208.875 C 109.964844 210.523438 98.632812 209.898438 100.238281 216.144531 C 104.035156 230.84375 120.863281 225.398438 123.835938 225.5625 C 126.804688 225.722656 119.375 208.875 119.375 208.875 Z M 119.375 208.875 " fill-opacity="1" fill-rule="nonzero"/><path fill="#292f33" d="M 116.90625 210.539062 C 102.054688 212.523438 96.777344 213.835938 107.667969 218.136719 C 113.785156 220.554688 125.433594 256.214844 134.054688 250.785156 C 142.671875 245.351562 116.90625 210.539062 116.90625 210.539062 Z M 116.90625 210.539062 " fill-opacity="1" fill-rule="nonzero"/><path fill="#ffac33" d="M 109.871094 134.316406 C 94.402344 134.316406 91.613281 159.402344 104.613281 162.8125 C 104.613281 162.8125 93.785156 189.132812 120.082031 189.132812 C 115.75 175.8125 107.707031 154.136719 113.894531 138.34375 M 267.398438 134.316406 C 282.867188 134.316406 285.65625 159.402344 272.660156 162.8125 C 272.660156 162.8125 283.488281 189.132812 257.191406 189.132812 C 261.523438 175.8125 269.5625 154.136719 263.375 138.34375 " fill-opacity="1" fill-rule="nonzero"/><path fill="#ffdc5d" d="M 267.851562 169.75 C 267.851562 171.371094 267.820312 172.992188 267.753906 174.613281 C 267.691406 176.230469 267.597656 177.847656 267.46875 179.460938 C 267.34375 181.078125 267.183594 182.6875 266.992188 184.289062 C 266.804688 185.894531 266.582031 187.492188 266.328125 189.082031 C 266.078125 190.671875 265.792969 192.253906 265.476562 193.828125 C 265.164062 195.402344 264.816406 196.964844 264.441406 198.515625 C 264.0625 200.070312 263.65625 201.609375 263.222656 203.136719 C 262.785156 204.664062 262.316406 206.175781 261.820312 207.675781 C 261.324219 209.171875 260.800781 210.65625 260.246094 212.121094 C 259.691406 213.585938 259.109375 215.035156 258.5 216.464844 C 257.886719 217.894531 257.25 219.308594 256.582031 220.699219 C 255.914062 222.089844 255.222656 223.457031 254.503906 224.808594 C 253.78125 226.15625 253.035156 227.480469 252.261719 228.785156 C 251.492188 230.085938 250.695312 231.367188 249.871094 232.617188 C 249.050781 233.871094 248.203125 235.101562 247.332031 236.300781 C 246.460938 237.503906 245.566406 238.679688 244.652344 239.824219 C 243.734375 240.972656 242.796875 242.089844 241.835938 243.179688 C 240.875 244.269531 239.894531 245.328125 238.890625 246.355469 C 237.890625 247.386719 236.867188 248.382812 235.828125 249.347656 C 234.785156 250.316406 233.726562 251.25 232.648438 252.148438 C 231.570312 253.050781 230.476562 253.917969 229.363281 254.753906 C 228.253906 255.585938 227.125 256.386719 225.980469 257.148438 C 224.839844 257.914062 223.679688 258.644531 222.507812 259.335938 C 221.335938 260.03125 220.152344 260.6875 218.953125 261.308594 C 217.757812 261.929688 216.546875 262.511719 215.328125 263.058594 C 214.105469 263.605469 212.875 264.113281 211.636719 264.585938 C 210.394531 265.054688 209.148438 265.488281 207.890625 265.882812 C 206.632812 266.277344 205.367188 266.632812 204.097656 266.949219 C 202.824219 267.265625 201.546875 267.542969 200.265625 267.777344 C 198.984375 268.015625 197.695312 268.214844 196.40625 268.375 C 195.117188 268.535156 193.824219 268.652344 192.53125 268.730469 C 191.234375 268.8125 189.941406 268.851562 188.644531 268.851562 C 187.347656 268.851562 186.050781 268.8125 184.757812 268.730469 C 183.460938 268.652344 182.167969 268.535156 180.878906 268.375 C 179.589844 268.214844 178.304688 268.015625 177.019531 267.777344 C 175.738281 267.542969 174.460938 267.265625 173.191406 266.949219 C 171.917969 266.632812 170.65625 266.277344 169.398438 265.882812 C 168.140625 265.488281 166.890625 265.054688 165.648438 264.585938 C 164.410156 264.113281 163.179688 263.605469 161.957031 263.058594 C 160.738281 262.511719 159.527344 261.929688 158.332031 261.308594 C 157.132812 260.6875 155.949219 260.03125 154.777344 259.335938 C 153.605469 258.644531 152.449219 257.914062 151.304688 257.148438 C 150.160156 256.386719 149.035156 255.585938 147.921875 254.753906 C 146.808594 253.917969 145.714844 253.050781 144.636719 252.148438 C 143.558594 251.25 142.5 250.316406 141.460938 249.347656 C 140.417969 248.382812 139.394531 247.386719 138.394531 246.355469 C 137.390625 245.328125 136.410156 244.269531 135.449219 243.179688 C 134.488281 242.089844 133.550781 240.972656 132.636719 239.824219 C 131.71875 238.679688 130.824219 237.503906 129.953125 236.300781 C 129.082031 235.101562 128.238281 233.871094 127.414062 232.617188 C 126.59375 231.367188 125.796875 230.085938 125.023438 228.785156 C 124.25 227.480469 123.503906 226.15625 122.785156 224.808594 C 122.0625 223.457031 121.371094 222.089844 120.703125 220.699219 C 120.039062 219.308594 119.398438 217.894531 118.789062 216.464844 C 118.175781 215.035156 117.59375 213.585938 117.039062 212.121094 C 116.484375 210.65625 115.960938 209.171875 115.464844 207.675781 C 114.96875 206.175781 114.503906 204.664062 114.066406 203.136719 C 113.628906 201.609375 113.222656 200.070312 112.847656 198.515625 C 112.46875 196.964844 112.125 195.402344 111.808594 193.828125 C 111.492188 192.253906 111.210938 190.671875 110.957031 189.082031 C 110.703125 187.492188 110.484375 185.894531 110.292969 184.289062 C 110.101562 182.6875 109.945312 181.078125 109.816406 179.460938 C 109.691406 177.847656 109.59375 176.230469 109.53125 174.613281 C 109.46875 172.992188 109.433594 171.371094 109.433594 169.75 C 109.433594 168.128906 109.46875 166.507812 109.53125 164.886719 C 109.59375 163.265625 109.691406 161.648438 109.816406 160.035156 C 109.945312 158.421875 110.101562 156.8125 110.292969 155.207031 C 110.484375 153.601562 110.703125 152.007812 110.957031 150.414062 C 111.210938 148.824219 111.492188 147.242188 111.808594 145.667969 C 112.125 144.097656 112.46875 142.535156 112.847656 140.980469 C 113.222656 139.429688 113.628906 137.890625 114.066406 136.363281 C 114.503906 134.835938 114.96875 133.324219 115.464844 131.824219 C 115.960938 130.324219 116.484375 128.84375 117.039062 127.378906 C 117.59375 125.910156 118.175781 124.460938 118.789062 123.03125 C 119.398438 121.601562 120.039062 120.191406 120.703125 118.800781 C 121.371094 117.410156 122.0625 116.039062 122.785156 114.691406 C 123.503906 113.34375 124.25 112.015625 125.023438 110.714844 C 125.796875 109.410156 126.59375 108.132812 127.414062 106.878906 C 128.238281 105.625 129.082031 104.398438 129.953125 103.195312 C 130.824219 101.996094 131.71875 100.820312 132.636719 99.671875 C 133.550781 98.527344 134.488281 97.40625 135.449219 96.320312 C 136.410156 95.230469 137.390625 94.171875 138.394531 93.140625 C 139.394531 92.113281 140.417969 91.117188 141.460938 90.148438 C 142.5 89.183594 143.558594 88.25 144.636719 87.347656 C 145.714844 86.449219 146.808594 85.578125 147.921875 84.746094 C 149.035156 83.914062 150.160156 83.113281 151.304688 82.347656 C 152.449219 81.582031 153.605469 80.855469 154.777344 80.160156 C 155.949219 79.46875 157.132812 78.8125 158.332031 78.191406 C 159.527344 77.570312 160.738281 76.984375 161.957031 76.441406 C 163.179688 75.894531 164.410156 75.382812 165.648438 74.914062 C 166.890625 74.441406 168.140625 74.011719 169.398438 73.617188 C 170.65625 73.222656 171.917969 72.867188 173.191406 72.550781 C 174.460938 72.234375 175.738281 71.957031 177.019531 71.71875 C 178.304688 71.480469 179.589844 71.28125 180.878906 71.125 C 182.167969 70.964844 183.460938 70.84375 184.757812 70.765625 C 186.050781 70.6875 187.347656 70.648438 188.644531 70.648438 C 189.941406 70.648438 191.234375 70.6875 192.53125 70.765625 C 193.824219 70.84375 195.117188 70.964844 196.40625 71.125 C 197.695312 71.28125 198.984375 71.480469 200.265625 71.71875 C 201.546875 71.957031 202.824219 72.234375 204.097656 72.550781 C 205.367188 72.867188 206.632812 73.222656 207.890625 73.617188 C 209.148438 74.011719 210.394531 74.441406 211.636719 74.914062 C 212.875 75.382812 214.105469 75.894531 215.328125 76.441406 C 216.546875 76.984375 217.757812 77.570312 218.953125 78.191406 C 220.152344 78.8125 221.335938 79.46875 222.507812 80.160156 C 223.679688 80.855469 224.839844 81.582031 225.980469 82.347656 C 227.125 83.113281 228.253906 83.914062 229.363281 84.746094 C 230.476562 85.578125 231.570312 86.449219 232.648438 87.347656 C 233.726562 88.25 234.785156 89.183594 235.828125 90.148438 C 236.867188 91.117188 237.890625 92.113281 238.890625 93.140625 C 239.894531 94.171875 240.875 95.230469 241.835938 96.320312 C 242.796875 97.40625 243.734375 98.527344 244.652344 99.671875 C 245.566406 100.820312 246.460938 101.996094 247.332031 103.195312 C 248.203125 104.398438 249.050781 105.625 249.871094 106.878906 C 250.695312 108.132812 251.492188 109.410156 252.261719 110.714844 C 253.035156 112.015625 253.78125 113.34375 254.503906 114.691406 C 255.222656 116.039062 255.914062 117.410156 256.582031 118.800781 C 257.25 120.191406 257.886719 121.601562 258.5 123.03125 C 259.109375 124.460938 259.691406 125.910156 260.246094 127.378906 C 260.800781 128.84375 261.324219 130.324219 261.820312 131.824219 C 262.316406 133.324219 262.785156 134.835938 263.222656 136.363281 C 263.65625 137.890625 264.0625 139.429688 264.441406 140.980469 C 264.816406 142.535156 265.164062 144.097656 265.476562 145.667969 C 265.792969 147.242188 266.078125 148.824219 266.328125 150.414062 C 266.582031 152.007812 266.804688 153.601562 266.992188 155.207031 C 267.183594 156.8125 267.34375 158.421875 267.46875 160.035156 C 267.597656 161.648438 267.691406 163.265625 267.753906 164.886719 C 267.820312 166.507812 267.851562 168.128906 267.851562 169.75 Z M 267.851562 169.75 " fill-opacity="1" fill-rule="nonzero"/><path fill="#662113" d="M 156.960938 181.640625 C 152.585938 181.640625 149.039062 178.089844 149.039062 173.714844 L 149.039062 165.785156 C 149.039062 161.410156 152.585938 157.855469 156.960938 157.855469 C 161.332031 157.855469 164.878906 161.410156 164.878906 165.785156 L 164.878906 173.714844 C 164.878906 178.089844 161.332031 181.640625 156.960938 181.640625 Z M 220.328125 181.640625 C 215.945312 181.640625 212.40625 178.089844 212.40625 173.714844 L 212.40625 165.785156 C 212.40625 161.410156 215.945312 157.855469 220.328125 157.855469 C 224.707031 157.855469 228.246094 161.410156 228.246094 165.785156 L 228.246094 173.714844 C 228.246094 178.089844 224.707031 181.640625 220.328125 181.640625 Z M 220.328125 181.640625 " fill-opacity="1" fill-rule="nonzero"/><path fill="#c1694f" d="M 196.5625 209.390625 C 196.5625 211.578125 194.789062 213.355469 192.605469 213.355469 L 184.683594 213.355469 C 182.496094 213.355469 180.722656 211.578125 180.722656 209.390625 C 180.722656 207.203125 182.496094 205.425781 184.683594 205.425781 L 192.605469 205.425781 C 194.789062 205.425781 196.5625 207.203125 196.5625 209.390625 Z M 196.5625 209.390625 " fill-opacity="1" fill-rule="nonzero"/><path fill="#292f33" d="M 106.71875 164.105469 C 107.890625 165.269531 113.753906 168.789062 114.925781 172.300781 C 116.097656 175.8125 118.449219 195.722656 125.484375 201.582031 C 132.738281 207.621094 160.097656 205.371094 165.339844 202.761719 C 177.0625 196.910156 178.503906 180.578125 180.578125 172.300781 C 181.753906 167.617188 188.785156 167.617188 188.785156 167.617188 C 188.785156 167.617188 195.820312 167.617188 196.992188 172.300781 C 199.066406 180.578125 200.507812 196.910156 212.230469 202.753906 C 217.476562 205.371094 244.832031 207.621094 252.105469 201.589844 C 259.128906 195.730469 261.476562 175.820312 262.648438 172.300781 C 263.804688 168.789062 269.679688 165.277344 270.84375 164.105469 C 272.015625 162.929688 272.015625 158.246094 270.84375 157.070312 C 268.5 154.734375 240.839844 152.640625 211.058594 155.898438 C 205.117188 156.546875 202.859375 158.238281 188.785156 158.238281 C 174.71875 158.238281 172.453125 156.539062 166.511719 155.898438 C 136.738281 152.640625 109.070312 154.726562 106.726562 157.070312 C 105.546875 158.246094 105.546875 162.9375 106.71875 164.105469 Z M 106.71875 164.105469 " fill-opacity="1" fill-rule="evenodd"/><path fill="#66757f" d="M 108.3125 113.417969 C 108.3125 113.417969 119.074219 42.851562 155.296875 47.042969 C 183.113281 50.261719 194.03125 53.585938 217.339844 47.8125 C 232.761719 43.992188 249.539062 56.820312 259.652344 82.53125 C 266.117188 98.925781 269.347656 114.570312 269.347656 114.570312 C 269.347656 114.570312 300.539062 111.515625 302.339844 128.300781 C 304.144531 145.085938 267.851562 165.691406 176.484375 165.691406 C 125.277344 165.683594 72.445312 146.996094 69.933594 131.351562 C 67.421875 115.710938 108.3125 113.417969 108.3125 113.417969 Z M 108.3125 113.417969 " fill-opacity="1" fill-rule="nonzero"/><path fill="#292f33" d="M 110.425781 103.546875 C 110.425781 103.546875 108.285156 112.300781 107.210938 118.382812 C 106.132812 124.472656 109 128.65625 128.636719 132.84375 C 154.671875 138.394531 213.222656 138.328125 247.90625 129.808594 C 261.839844 126.382812 270.765625 124.097656 269.695312 117.257812 C 268.375 108.789062 268.144531 108.804688 265.410156 99.75 C 265.410156 99.75 253.710938 103.730469 238.265625 107.363281 C 217.199219 112.308594 159.34375 114.585938 131.488281 108.503906 C 116.644531 105.253906 110.425781 103.546875 110.425781 103.546875 Z M 109.347656 214.171875 C 106.542969 215.320312 132.484375 225.097656 168.59375 225.730469 C 206.386719 226.394531 217.972656 228.820312 209.355469 237.296875 C 200.277344 246.214844 202.609375 260.242188 203.25 264.394531 C 203.890625 268.550781 219.464844 279.585938 220.738281 284.691406 C 222.011719 289.804688 211.003906 331.953125 211.003906 331.953125 L 141.863281 329.953125 C 121.546875 259.835938 119.027344 262.558594 109.347656 222.097656 C 107.4375 214.109375 109.347656 214.171875 109.347656 214.171875 Z M 109.347656 214.171875 " fill-opacity="1" fill-rule="nonzero"/><path fill="#66757f" d="M 101.425781 214.496094 C 98.625 215.652344 124.5625 225.421875 160.675781 226.054688 C 198.464844 226.722656 210.054688 229.148438 201.433594 237.621094 C 192.359375 246.542969 196.175781 260.566406 196.816406 264.722656 C 197.460938 268.875 211.542969 279.910156 212.824219 285.023438 C 214.09375 290.132812 203.074219 332.277344 203.074219 332.277344 L 133.933594 330.28125 C 113.617188 260.164062 111.097656 262.882812 101.417969 222.425781 C 99.519531 214.433594 101.425781 214.496094 101.425781 214.496094 Z M 101.425781 214.496094 " fill-opacity="1" fill-rule="nonzero"/><path fill="#292f33" d="M 268.261719 214.171875 C 271.066406 215.320312 245.125 225.097656 209.023438 225.730469 C 171.234375 226.394531 159.644531 228.820312 168.261719 237.296875 C 177.339844 246.214844 191.835938 260.226562 191.203125 264.378906 C 190.558594 268.535156 158.15625 279.585938 156.878906 284.691406 C 155.605469 289.804688 166.617188 331.953125 166.617188 331.953125 L 235.757812 329.953125 C 256.074219 259.835938 258.589844 262.558594 268.261719 222.097656 C 270.171875 214.109375 268.261719 214.171875 268.261719 214.171875 Z M 268.261719 214.171875 " fill-opacity="1" fill-rule="nonzero"/><path fill="#66757f" d="M 275.4375 214.171875 C 278.242188 215.320312 252.300781 225.097656 216.199219 225.730469 C 178.410156 226.394531 166.820312 228.820312 175.4375 237.296875 C 184.515625 246.214844 199.019531 260.226562 198.378906 264.378906 C 197.734375 268.535156 165.332031 279.585938 164.058594 284.691406 C 162.78125 289.804688 173.792969 331.953125 173.792969 331.953125 L 242.363281 332.03125 C 262.679688 261.914062 265.769531 262.558594 275.445312 222.097656 C 277.347656 214.105469 275.4375 214.171875 275.4375 214.171875 Z M 275.4375 214.171875 " fill-opacity="1" fill-rule="nonzero"/></svg>