<svg xmlns="http://www.w3.org/2000/svg" xmlns:xlink="http://www.w3.org/1999/xlink" width="500" zoomAndPan="magnify" viewBox="0 0 375 374.999991" height="500" preserveAspectRatio="xMidYMid meet" version="1.0"><defs><clipPath id="id1"><path d="M 69 182 L 337.5 182 L 337.5 336 L 69 336 Z M 69 182 " clip-rule="nonzero"/></clipPath></defs><path fill="#42484c" d="M 42.007812 160.441406 L 61.578125 146.742188 L 121.863281 232.835938 L 102.296875 246.535156 Z M 42.007812 160.441406 " fill-opacity="1" fill-rule="nonzero"/><path fill="#66757f" d="M 69 153.191406 L 45.527344 169.632812 C 43.375 171.144531 40.375 170.609375 38.875 168.457031 C 37.367188 166.308594 37.902344 163.308594 40.050781 161.808594 L 63.527344 145.367188 C 65.675781 143.855469 68.675781 144.390625 70.175781 146.542969 C 71.683594 148.691406 71.160156 151.679688 69 153.191406 Z M 131.628906 225.972656 L 92.492188 253.375 C 90.34375 254.886719 87.34375 254.351562 85.84375 252.199219 C 84.335938 250.050781 84.871094 247.050781 87.019531 245.550781 L 126.152344 218.148438 C 128.300781 216.640625 131.300781 217.175781 132.800781 219.324219 C 134.3125 221.472656 133.777344 224.464844 131.628906 225.972656 Z M 131.628906 225.972656 " fill-opacity="1" fill-rule="nonzero"/><path fill="#000000" d="M 98.371094 249.277344 L 125.769531 230.09375 L 175.078125 300.535156 L 147.6875 319.71875 Z M 52.96875 176.09375 L 72.535156 162.390625 L 78.007812 170.226562 L 58.441406 183.917969 Z M 63.925781 191.742188 L 83.492188 178.042969 L 88.96875 185.875 L 69.402344 199.578125 Z M 74.886719 207.402344 L 94.453125 193.699219 L 99.9375 201.535156 L 80.371094 215.234375 Z M 85.84375 223.058594 L 105.410156 209.359375 L 110.894531 217.183594 L 91.328125 230.886719 Z M 85.84375 223.058594 " fill-opacity="1" fill-rule="nonzero"/><path fill="#292f33" d="M 254.855469 184.058594 C 254.855469 184.058594 292.320312 213.699219 276.09375 249.601562 C 276.105469 249.601562 232.710938 227.457031 254.855469 184.058594 Z M 254.855469 184.058594 " fill-opacity="1" fill-rule="nonzero"/><path fill="#000000" d="M 279.859375 236.160156 C 281.683594 220.507812 274.585938 206.875 267.476562 197.464844 C 260.167969 193.976562 253.929688 192.277344 251.550781 191.714844 C 251.167969 192.773438 250.96875 193.765625 250.664062 194.808594 C 251.992188 220.023438 266.847656 231.25 279.859375 236.160156 Z M 279.859375 236.160156 " fill-opacity="1" fill-rule="nonzero"/><g clip-path="url(#id1)"><path fill="#292f33" d="M 251.511719 182.722656 C 251.511719 182.722656 298.375 191.972656 300.351562 231.316406 C 300.351562 231.316406 251.636719 231.441406 251.511719 182.722656 Z M 337.5 335.589844 L 337.5 316.480469 C 337.5 284.820312 311.847656 259.15625 280.175781 259.15625 L 127.308594 259.15625 C 95.65625 259.15625 69.984375 284.820312 69.984375 316.480469 L 69.984375 335.589844 Z M 337.5 335.589844 " fill-opacity="1" fill-rule="nonzero"/></g><path fill="#292f33" d="M 154.050781 247.222656 L 253.441406 247.222656 L 253.441406 287.820312 L 154.050781 287.820312 Z M 154.050781 247.222656 " fill-opacity="1" fill-rule="nonzero"/><path fill="#292f33" d="M 165.527344 249.601562 L 241.957031 249.601562 C 241.957031 249.601562 232.234375 316.480469 203.742188 316.480469 C 175.25 316.480469 165.527344 249.601562 165.527344 249.601562 " fill-opacity="1" fill-rule="nonzero"/><path fill="#292f33" d="M 162.085938 278.628906 C 178.75 290.742188 189.296875 297.382812 203.742188 297.382812 C 218.1875 297.382812 228.726562 290.734375 245.386719 278.628906 L 245.386719 223.699219 L 162.078125 223.699219 L 162.078125 278.628906 Z M 162.085938 278.628906 " fill-opacity="1" fill-rule="nonzero"/><path fill="#000000" d="M 162.007812 239.789062 C 173.628906 252.917969 188.035156 256.472656 203.703125 256.472656 C 219.363281 256.472656 233.761719 252.90625 245.386719 239.789062 L 245.386719 206.4375 L 162 206.4375 L 162 239.789062 Z M 162.007812 239.789062 " fill-opacity="1" fill-rule="nonzero"/><path fill="#292f33" d="M 141.105469 143.894531 C 141.105469 157.730469 134.09375 168.945312 125.445312 168.945312 C 116.800781 168.945312 109.785156 157.730469 109.785156 143.894531 C 109.785156 130.058594 116.800781 118.835938 125.445312 118.835938 C 134.09375 118.824219 141.105469 130.050781 141.105469 143.894531 M 297.6875 143.894531 C 297.6875 157.730469 290.683594 168.945312 282.027344 168.945312 C 273.382812 168.945312 266.371094 157.730469 266.371094 143.894531 C 266.371094 130.058594 273.371094 118.835938 282.027344 118.835938 C 290.683594 118.824219 297.6875 130.050781 297.6875 143.894531 " fill-opacity="1" fill-rule="nonzero"/><path fill="#292f33" d="M 122.3125 149.664062 C 122.3125 77.628906 146.417969 39.410156 203.742188 39.410156 C 261.066406 39.410156 285.164062 77.628906 285.164062 149.664062 C 285.164062 205.28125 248.714844 250.367188 203.742188 250.367188 C 158.769531 250.367188 122.3125 205.28125 122.3125 149.664062 " fill-opacity="1" fill-rule="nonzero"/><path fill="#66757f" d="M 136.863281 259.15625 C 136.863281 268.710938 146.417969 287.820312 165.527344 306.925781 C 180.628906 322.03125 191.503906 335.589844 191.503906 335.589844 C 199.117188 335.542969 209.65625 335.550781 217.585938 335.578125 C 209.074219 316.28125 193.921875 302.417969 186.257812 294.753906 C 176.703125 285.199219 155.972656 268.710938 155.972656 249.601562 C 155.972656 240.046875 136.863281 259.15625 136.863281 259.15625 " fill-opacity="1" fill-rule="nonzero"/><path fill="#292f33" d="M 191.503906 335.589844 L 217.527344 335.578125 C 212.636719 324.488281 205.578125 315.257812 198.992188 307.902344 C 194.167969 313.757812 189.515625 320.761719 185.570312 328.539062 C 189.277344 332.828125 191.503906 335.589844 191.503906 335.589844 Z M 191.503906 335.589844 " fill-opacity="1" fill-rule="nonzero"/><path fill="#66757f" d="M 270.621094 259.15625 C 270.621094 268.710938 261.066406 287.820312 241.957031 306.925781 C 226.851562 322.03125 218.074219 335.589844 218.074219 335.589844 C 209.457031 335.550781 204.527344 335.570312 189.410156 335.589844 C 197.921875 316.289062 213.5625 302.417969 221.226562 294.753906 C 230.78125 285.199219 251.511719 268.710938 251.511719 249.601562 C 251.511719 240.046875 270.621094 259.15625 270.621094 259.15625 " fill-opacity="1" fill-rule="nonzero"/><path fill="#ffdc5d" d="M 203.742188 122.636719 C 175.128906 122.636719 126.199219 103.109375 136.25 141.554688 C 142.117188 163.988281 149.789062 169.078125 169.453125 166.453125 C 189.746094 163.75 188.472656 156.746094 202.84375 156.746094 C 217.214844 156.746094 217.75 163.75 238.042969 166.453125 C 257.703125 169.070312 265.375 163.988281 271.242188 141.554688 C 281.285156 103.109375 232.355469 122.636719 203.742188 122.636719 Z M 203.742188 122.636719 " fill-opacity="1" fill-rule="nonzero"/><path fill="#662113" d="M 165.527344 154.058594 C 160.269531 154.058594 155.972656 149.761719 155.972656 144.507812 L 155.972656 134.953125 C 155.972656 129.699219 160.269531 125.398438 165.527344 125.398438 C 170.78125 125.398438 175.078125 129.699219 175.078125 134.953125 L 175.078125 144.507812 C 175.078125 149.761719 170.78125 154.058594 165.527344 154.058594 M 241.957031 154.058594 C 236.703125 154.058594 232.40625 149.761719 232.40625 144.507812 L 232.40625 134.953125 C 232.40625 129.699219 236.703125 125.398438 241.957031 125.398438 C 247.214844 125.398438 251.511719 129.699219 251.511719 134.953125 L 251.511719 144.507812 C 251.511719 149.761719 247.214844 154.058594 241.957031 154.058594 " fill-opacity="1" fill-rule="nonzero"/></svg>