<svg xmlns="http://www.w3.org/2000/svg" xmlns:xlink="http://www.w3.org/1999/xlink" width="500" zoomAndPan="magnify" viewBox="0 0 375 374.999991" height="500" preserveAspectRatio="xMidYMid meet" version="1.0"><defs><clipPath id="id1"><path d="M 45.160156 138 L 131.410156 138 L 131.410156 225 L 45.160156 225 Z M 45.160156 138 " clip-rule="nonzero"/></clipPath><clipPath id="id2"><path d="M 143 216 L 221.71875 216 L 221.71875 235 L 143 235 Z M 143 216 " clip-rule="nonzero"/></clipPath><clipPath id="id3"><path d="M 233.105469 173 L 265 173 L 265 210 L 233.105469 210 Z M 233.105469 173 " clip-rule="nonzero"/></clipPath><clipPath id="id4"><path d="M 243 185 L 329.855469 185 L 329.855469 235.882812 L 243 235.882812 Z M 243 185 " clip-rule="nonzero"/></clipPath><clipPath id="id5"><path d="M 260 139.132812 L 313 139.132812 L 313 208 L 260 208 Z M 260 139.132812 " clip-rule="nonzero"/></clipPath><clipPath id="id6"><path d="M 265 206 L 292 206 L 292 235.882812 L 265 235.882812 Z M 265 206 " clip-rule="nonzero"/></clipPath><clipPath id="id7"><path d="M 280 226 L 292 226 L 292 235.882812 L 280 235.882812 Z M 280 226 " clip-rule="nonzero"/></clipPath><clipPath id="id8"><path d="M 282 206 L 309 206 L 309 235.882812 L 282 235.882812 Z M 282 206 " clip-rule="nonzero"/></clipPath></defs><g clip-path="url(#id1)"><path fill="#aa8dd8" d="M 131.410156 181.15625 C 131.410156 182.5625 131.339844 183.96875 131.203125 185.371094 C 131.066406 186.769531 130.859375 188.160156 130.582031 189.542969 C 130.308594 190.921875 129.964844 192.289062 129.554688 193.632812 C 129.144531 194.980469 128.667969 196.304688 128.128906 197.605469 C 127.585938 198.90625 126.984375 200.179688 126.320312 201.421875 C 125.652344 202.660156 124.925781 203.867188 124.144531 205.039062 C 123.359375 206.207031 122.519531 207.339844 121.621094 208.425781 C 120.726562 209.515625 119.777344 210.558594 118.78125 211.550781 C 117.78125 212.546875 116.734375 213.492188 115.644531 214.386719 C 114.550781 215.277344 113.417969 216.117188 112.246094 216.898438 C 111.070312 217.679688 109.859375 218.402344 108.613281 219.066406 C 107.371094 219.730469 106.09375 220.332031 104.789062 220.871094 C 103.484375 221.410156 102.15625 221.882812 100.804688 222.292969 C 99.453125 222.699219 98.085938 223.042969 96.699219 223.316406 C 95.3125 223.589844 93.917969 223.796875 92.511719 223.9375 C 91.105469 224.074219 89.699219 224.144531 88.285156 224.144531 C 86.875 224.144531 85.464844 224.074219 84.058594 223.9375 C 82.652344 223.796875 81.257812 223.589844 79.871094 223.316406 C 78.488281 223.042969 77.117188 222.699219 75.765625 222.292969 C 74.414062 221.882812 73.085938 221.410156 71.78125 220.871094 C 70.476562 220.332031 69.203125 219.730469 67.957031 219.066406 C 66.710938 218.402344 65.5 217.679688 64.328125 216.898438 C 63.152344 216.117188 62.019531 215.277344 60.925781 214.386719 C 59.835938 213.492188 58.789062 212.546875 57.792969 211.550781 C 56.792969 210.558594 55.847656 209.515625 54.949219 208.425781 C 54.054688 207.339844 53.214844 206.207031 52.429688 205.039062 C 51.644531 203.867188 50.917969 202.660156 50.253906 201.421875 C 49.585938 200.179688 48.984375 198.90625 48.445312 197.605469 C 47.902344 196.304688 47.429688 194.980469 47.019531 193.632812 C 46.609375 192.289062 46.265625 190.921875 45.988281 189.542969 C 45.714844 188.160156 45.507812 186.769531 45.367188 185.371094 C 45.230469 183.96875 45.160156 182.5625 45.160156 181.15625 C 45.160156 179.75 45.230469 178.34375 45.367188 176.941406 C 45.507812 175.542969 45.714844 174.152344 45.988281 172.769531 C 46.265625 171.390625 46.609375 170.023438 47.019531 168.679688 C 47.429688 167.332031 47.902344 166.007812 48.445312 164.707031 C 48.984375 163.40625 49.585938 162.132812 50.253906 160.894531 C 50.917969 159.652344 51.644531 158.445312 52.429688 157.273438 C 53.214844 156.105469 54.054688 154.972656 54.949219 153.886719 C 55.847656 152.796875 56.792969 151.753906 57.792969 150.761719 C 58.789062 149.765625 59.835938 148.820312 60.925781 147.925781 C 62.019531 147.035156 63.152344 146.195312 64.328125 145.414062 C 65.5 144.632812 66.710938 143.910156 67.957031 143.246094 C 69.203125 142.582031 70.476562 141.980469 71.78125 141.441406 C 73.085938 140.902344 74.414062 140.429688 75.765625 140.019531 C 77.117188 139.613281 78.488281 139.269531 79.871094 138.996094 C 81.257812 138.722656 82.652344 138.515625 84.058594 138.375 C 85.464844 138.238281 86.875 138.167969 88.285156 138.167969 C 89.699219 138.167969 91.105469 138.238281 92.511719 138.375 C 93.917969 138.515625 95.3125 138.722656 96.699219 138.996094 C 98.085938 139.269531 99.453125 139.613281 100.804688 140.019531 C 102.15625 140.429688 103.484375 140.902344 104.789062 141.441406 C 106.09375 141.980469 107.371094 142.582031 108.613281 143.246094 C 109.859375 143.910156 111.070312 144.632812 112.246094 145.414062 C 113.417969 146.195312 114.550781 147.035156 115.644531 147.925781 C 116.734375 148.820312 117.78125 149.765625 118.78125 150.761719 C 119.777344 151.753906 120.726562 152.796875 121.621094 153.886719 C 122.519531 154.972656 123.359375 156.105469 124.144531 157.273438 C 124.925781 158.445312 125.652344 159.652344 126.320312 160.894531 C 126.984375 162.132812 127.585938 163.40625 128.128906 164.707031 C 128.667969 166.007812 129.144531 167.332031 129.554688 168.679688 C 129.964844 170.023438 130.308594 171.390625 130.582031 172.769531 C 130.859375 174.152344 131.066406 175.542969 131.203125 176.941406 C 131.339844 178.34375 131.410156 179.75 131.410156 181.15625 Z M 131.410156 181.15625 " fill-opacity="1" fill-rule="nonzero"/></g><path fill="#744eaa" d="M 116.109375 175.609375 C 116.109375 176.339844 116.039062 177.058594 115.894531 177.773438 C 115.753906 178.488281 115.539062 179.183594 115.261719 179.855469 C 114.980469 180.527344 114.640625 181.167969 114.234375 181.773438 C 113.828125 182.378906 113.367188 182.9375 112.847656 183.453125 C 112.332031 183.96875 111.769531 184.429688 111.164062 184.832031 C 110.554688 185.238281 109.914062 185.578125 109.238281 185.859375 C 108.5625 186.136719 107.867188 186.347656 107.152344 186.488281 C 106.433594 186.632812 105.710938 186.703125 104.980469 186.703125 C 104.25 186.703125 103.523438 186.632812 102.808594 186.488281 C 102.089844 186.347656 101.394531 186.136719 100.71875 185.859375 C 100.046875 185.578125 99.402344 185.238281 98.796875 184.832031 C 98.1875 184.429688 97.625 183.96875 97.109375 183.453125 C 96.59375 182.9375 96.132812 182.378906 95.726562 181.773438 C 95.320312 181.167969 94.976562 180.527344 94.699219 179.855469 C 94.417969 179.183594 94.207031 178.488281 94.0625 177.773438 C 93.921875 177.058594 93.851562 176.339844 93.851562 175.609375 C 93.851562 174.882812 93.921875 174.160156 94.0625 173.445312 C 94.207031 172.730469 94.417969 172.039062 94.699219 171.363281 C 94.976562 170.691406 95.320312 170.050781 95.726562 169.445312 C 96.132812 168.839844 96.59375 168.28125 97.109375 167.765625 C 97.625 167.25 98.1875 166.789062 98.796875 166.386719 C 99.402344 165.980469 100.046875 165.640625 100.71875 165.359375 C 101.394531 165.082031 102.089844 164.871094 102.808594 164.730469 C 103.523438 164.585938 104.25 164.515625 104.980469 164.515625 C 105.710938 164.515625 106.433594 164.585938 107.152344 164.730469 C 107.867188 164.871094 108.5625 165.082031 109.238281 165.359375 C 109.914062 165.640625 110.554688 165.980469 111.164062 166.386719 C 111.769531 166.789062 112.332031 167.25 112.847656 167.765625 C 113.367188 168.28125 113.828125 168.839844 114.234375 169.445312 C 114.640625 170.050781 114.980469 170.691406 115.261719 171.363281 C 115.539062 172.039062 115.753906 172.730469 115.894531 173.445312 C 116.039062 174.160156 116.109375 174.882812 116.109375 175.609375 Z M 116.109375 175.609375 " fill-opacity="1" fill-rule="nonzero"/><path fill="#744eaa" d="M 88.285156 192.25 C 88.285156 192.796875 88.230469 193.335938 88.125 193.871094 C 88.019531 194.410156 87.859375 194.929688 87.652344 195.433594 C 87.441406 195.9375 87.183594 196.417969 86.878906 196.871094 C 86.574219 197.324219 86.230469 197.746094 85.839844 198.132812 C 85.453125 198.519531 85.03125 198.863281 84.578125 199.167969 C 84.121094 199.472656 83.640625 199.726562 83.132812 199.9375 C 82.625 200.144531 82.105469 200.304688 81.566406 200.410156 C 81.03125 200.515625 80.488281 200.570312 79.9375 200.570312 C 79.390625 200.570312 78.847656 200.515625 78.3125 200.410156 C 77.773438 200.304688 77.25 200.144531 76.746094 199.9375 C 76.238281 199.726562 75.757812 199.472656 75.300781 199.167969 C 74.847656 198.863281 74.425781 198.519531 74.035156 198.132812 C 73.648438 197.746094 73.304688 197.324219 73 196.871094 C 72.695312 196.417969 72.4375 195.9375 72.226562 195.433594 C 72.019531 194.929688 71.859375 194.410156 71.753906 193.871094 C 71.644531 193.335938 71.59375 192.796875 71.59375 192.25 C 71.59375 191.703125 71.644531 191.164062 71.753906 190.625 C 71.859375 190.089844 72.019531 189.570312 72.226562 189.066406 C 72.4375 188.5625 72.695312 188.082031 73 187.628906 C 73.304688 187.171875 73.648438 186.753906 74.035156 186.367188 C 74.425781 185.980469 74.847656 185.636719 75.300781 185.332031 C 75.757812 185.027344 76.238281 184.773438 76.746094 184.5625 C 77.25 184.355469 77.773438 184.195312 78.3125 184.089844 C 78.847656 183.984375 79.390625 183.929688 79.9375 183.929688 C 80.488281 183.929688 81.03125 183.984375 81.566406 184.089844 C 82.105469 184.195312 82.625 184.355469 83.132812 184.5625 C 83.640625 184.773438 84.121094 185.027344 84.578125 185.332031 C 85.03125 185.636719 85.453125 185.980469 85.839844 186.367188 C 86.230469 186.753906 86.574219 187.171875 86.878906 187.628906 C 87.183594 188.082031 87.441406 188.5625 87.652344 189.066406 C 87.859375 189.570312 88.019531 190.089844 88.125 190.625 C 88.230469 191.164062 88.285156 191.703125 88.285156 192.25 Z M 88.285156 192.25 " fill-opacity="1" fill-rule="nonzero"/><path fill="#744eaa" d="M 88.285156 153.421875 C 88.285156 153.789062 88.25 154.148438 88.179688 154.503906 C 88.109375 154.863281 88.003906 155.210938 87.863281 155.546875 C 87.722656 155.882812 87.550781 156.203125 87.347656 156.503906 C 87.144531 156.808594 86.914062 157.085938 86.65625 157.34375 C 86.398438 157.601562 86.117188 157.832031 85.8125 158.035156 C 85.507812 158.238281 85.1875 158.40625 84.851562 158.546875 C 84.511719 158.6875 84.164062 158.792969 83.808594 158.863281 C 83.449219 158.933594 83.085938 158.96875 82.722656 158.96875 C 82.355469 158.96875 81.992188 158.933594 81.636719 158.863281 C 81.277344 158.792969 80.929688 158.6875 80.59375 158.546875 C 80.253906 158.40625 79.933594 158.238281 79.628906 158.035156 C 79.324219 157.832031 79.046875 157.601562 78.785156 157.34375 C 78.527344 157.085938 78.296875 156.808594 78.09375 156.503906 C 77.890625 156.203125 77.71875 155.882812 77.582031 155.546875 C 77.441406 155.210938 77.335938 154.863281 77.265625 154.503906 C 77.191406 154.148438 77.15625 153.789062 77.15625 153.421875 C 77.15625 153.058594 77.191406 152.699219 77.265625 152.339844 C 77.335938 151.984375 77.441406 151.636719 77.582031 151.300781 C 77.71875 150.964844 77.890625 150.644531 78.09375 150.339844 C 78.296875 150.039062 78.527344 149.757812 78.785156 149.5 C 79.046875 149.242188 79.324219 149.011719 79.628906 148.8125 C 79.933594 148.609375 80.253906 148.4375 80.59375 148.296875 C 80.929688 148.160156 81.277344 148.054688 81.636719 147.984375 C 81.992188 147.910156 82.355469 147.875 82.722656 147.875 C 83.085938 147.875 83.449219 147.910156 83.808594 147.984375 C 84.164062 148.054688 84.511719 148.160156 84.851562 148.296875 C 85.1875 148.4375 85.507812 148.609375 85.8125 148.8125 C 86.117188 149.011719 86.398438 149.242188 86.65625 149.5 C 86.914062 149.757812 87.144531 150.039062 87.347656 150.339844 C 87.550781 150.644531 87.722656 150.964844 87.863281 151.300781 C 88.003906 151.636719 88.109375 151.984375 88.179688 152.339844 C 88.25 152.699219 88.285156 153.058594 88.285156 153.421875 Z M 88.285156 153.421875 " fill-opacity="1" fill-rule="nonzero"/><path fill="#bf6952" d="M 120.339844 217.707031 L 56.230469 217.707031 L 54.898438 231.074219 C 54.898438 236.621094 60.464844 236.621094 60.464844 236.621094 L 116.109375 236.621094 C 116.109375 236.621094 121.671875 236.621094 121.671875 231.074219 Z M 120.339844 217.707031 " fill-opacity="1" fill-rule="nonzero"/><path fill="#d79e84" d="M 120.542969 219.738281 L 120.339844 217.707031 C 119.949219 215.660156 118.199219 214.4375 116.109375 214.4375 L 60.464844 214.4375 C 58.375 214.4375 56.625 215.660156 56.230469 217.707031 L 56.027344 219.738281 Z M 120.542969 219.738281 " fill-opacity="1" fill-rule="nonzero"/><g clip-path="url(#id2)"><path fill="#66757f" d="M 221.71875 234.761719 L 221.71875 232.171875 C 221.71875 223.59375 214.734375 216.636719 206.125 216.636719 L 159.34375 216.636719 C 150.734375 216.636719 143.75 223.59375 143.75 232.171875 L 143.75 234.761719 Z M 221.71875 234.761719 " fill-opacity="1" fill-rule="nonzero"/></g><path fill="#ef9645" d="M 167.140625 212.707031 C 171.484375 216.785156 176.875 219.226562 182.734375 219.226562 C 188.59375 219.226562 193.980469 216.78125 198.328125 212.707031 L 198.328125 208.867188 L 167.140625 208.867188 Z M 167.140625 212.707031 " fill-opacity="1" fill-rule="nonzero"/><path fill="#66757f" d="M 205.476562 194.460938 C 208.5625 195 212.28125 194.792969 211.753906 196.835938 C 210.511719 201.632812 204.988281 199.855469 204.011719 199.910156 C 203.039062 199.960938 205.476562 194.460938 205.476562 194.460938 Z M 205.476562 194.460938 " fill-opacity="1" fill-rule="nonzero"/><path fill="#292f33" d="M 206.285156 195.003906 C 211.160156 195.652344 212.890625 196.082031 209.316406 197.484375 C 207.3125 198.273438 203.488281 209.921875 200.660156 208.144531 C 197.835938 206.371094 206.285156 195.003906 206.285156 195.003906 Z M 206.285156 195.003906 " fill-opacity="1" fill-rule="nonzero"/><path fill="#66757f" d="M 160.007812 194.460938 C 156.917969 195 153.199219 194.792969 153.726562 196.835938 C 154.972656 201.632812 160.496094 199.855469 161.46875 199.910156 C 162.445312 199.960938 160.007812 194.460938 160.007812 194.460938 Z M 160.007812 194.460938 " fill-opacity="1" fill-rule="nonzero"/><path fill="#292f33" d="M 159.195312 195.003906 C 154.320312 195.652344 152.589844 196.082031 156.164062 197.484375 C 158.171875 198.273438 161.996094 209.921875 164.820312 208.144531 C 167.648438 206.371094 159.195312 195.003906 159.195312 195.003906 Z M 159.195312 195.003906 " fill-opacity="1" fill-rule="nonzero"/><path fill="#ffac33" d="M 156.886719 170.109375 C 151.8125 170.109375 150.898438 178.304688 155.160156 179.417969 C 155.160156 179.417969 151.609375 188.011719 160.238281 188.011719 C 158.816406 183.664062 156.179688 176.585938 158.207031 171.425781 M 208.578125 170.109375 C 213.652344 170.109375 214.566406 178.304688 210.300781 179.417969 C 210.300781 179.417969 213.855469 188.011719 205.226562 188.011719 C 206.648438 183.664062 209.285156 176.585938 207.257812 171.425781 " fill-opacity="1" fill-rule="nonzero"/><path fill="#ffdc5d" d="M 208.726562 181.683594 C 208.726562 182.742188 208.683594 183.800781 208.597656 184.855469 C 208.515625 185.910156 208.390625 186.957031 208.226562 187.996094 C 208.058594 189.035156 207.851562 190.0625 207.605469 191.078125 C 207.359375 192.089844 207.070312 193.089844 206.746094 194.066406 C 206.421875 195.046875 206.058594 196.003906 205.65625 196.9375 C 205.253906 197.875 204.816406 198.78125 204.34375 199.664062 C 203.871094 200.542969 203.363281 201.394531 202.824219 202.214844 C 202.285156 203.035156 201.714844 203.816406 201.113281 204.566406 C 200.511719 205.316406 199.878906 206.027344 199.222656 206.699219 C 198.566406 207.375 197.882812 208.003906 197.175781 208.59375 C 196.464844 209.179688 195.738281 209.726562 194.984375 210.226562 C 194.234375 210.726562 193.46875 211.179688 192.679688 211.582031 C 191.894531 211.988281 191.09375 212.347656 190.277344 212.652344 C 189.464844 212.960938 188.640625 213.21875 187.804688 213.425781 C 186.96875 213.632812 186.128906 213.789062 185.28125 213.890625 C 184.433594 213.996094 183.585938 214.046875 182.734375 214.046875 C 181.882812 214.046875 181.035156 213.996094 180.1875 213.890625 C 179.339844 213.789062 178.5 213.632812 177.664062 213.425781 C 176.828125 213.21875 176.003906 212.960938 175.191406 212.652344 C 174.375 212.347656 173.574219 211.988281 172.789062 211.582031 C 172.003906 211.179688 171.234375 210.726562 170.484375 210.226562 C 169.730469 209.726562 169.003906 209.179688 168.296875 208.59375 C 167.585938 208.003906 166.90625 207.375 166.246094 206.699219 C 165.589844 206.027344 164.957031 205.316406 164.355469 204.566406 C 163.753906 203.816406 163.183594 203.035156 162.644531 202.214844 C 162.105469 201.394531 161.597656 200.542969 161.125 199.664062 C 160.652344 198.78125 160.214844 197.875 159.8125 196.9375 C 159.410156 196.003906 159.046875 195.046875 158.722656 194.066406 C 158.398438 193.089844 158.109375 192.089844 157.863281 191.078125 C 157.617188 190.0625 157.410156 189.035156 157.242188 187.996094 C 157.078125 186.957031 156.953125 185.910156 156.871094 184.855469 C 156.785156 183.800781 156.746094 182.742188 156.746094 181.683594 C 156.746094 180.621094 156.785156 179.566406 156.871094 178.511719 C 156.953125 177.453125 157.078125 176.40625 157.242188 175.367188 C 157.410156 174.328125 157.617188 173.300781 157.863281 172.289062 C 158.109375 171.273438 158.398438 170.277344 158.722656 169.296875 C 159.046875 168.316406 159.410156 167.359375 159.8125 166.425781 C 160.214844 165.492188 160.652344 164.582031 161.125 163.703125 C 161.597656 162.820312 162.105469 161.96875 162.644531 161.148438 C 163.183594 160.332031 163.753906 159.546875 164.355469 158.796875 C 164.957031 158.046875 165.589844 157.335938 166.246094 156.664062 C 166.90625 155.992188 167.585938 155.359375 168.296875 154.773438 C 169.003906 154.183594 169.730469 153.636719 170.484375 153.140625 C 171.234375 152.640625 172.003906 152.1875 172.789062 151.78125 C 173.574219 151.375 174.375 151.019531 175.191406 150.710938 C 176.003906 150.402344 176.828125 150.144531 177.664062 149.9375 C 178.5 149.730469 179.339844 149.578125 180.1875 149.472656 C 181.035156 149.371094 181.882812 149.316406 182.734375 149.316406 C 183.585938 149.316406 184.433594 149.371094 185.28125 149.472656 C 186.128906 149.578125 186.96875 149.730469 187.804688 149.9375 C 188.640625 150.144531 189.464844 150.402344 190.277344 150.710938 C 191.09375 151.019531 191.894531 151.375 192.679688 151.78125 C 193.46875 152.1875 194.234375 152.640625 194.984375 153.140625 C 195.738281 153.636719 196.464844 154.183594 197.175781 154.773438 C 197.882812 155.359375 198.566406 155.992188 199.222656 156.664062 C 199.878906 157.335938 200.511719 158.046875 201.113281 158.796875 C 201.714844 159.546875 202.285156 160.332031 202.824219 161.148438 C 203.363281 161.96875 203.871094 162.820312 204.34375 163.703125 C 204.816406 164.582031 205.253906 165.492188 205.65625 166.425781 C 206.058594 167.359375 206.421875 168.316406 206.746094 169.296875 C 207.070312 170.277344 207.359375 171.273438 207.605469 172.289062 C 207.851562 173.300781 208.058594 174.328125 208.226562 175.367188 C 208.390625 176.40625 208.515625 177.453125 208.597656 178.511719 C 208.683594 179.566406 208.726562 180.621094 208.726562 181.683594 Z M 208.726562 181.683594 " fill-opacity="1" fill-rule="nonzero"/><path fill="#662113" d="M 172.339844 185.566406 C 170.902344 185.566406 169.738281 184.40625 169.738281 182.976562 L 169.738281 180.386719 C 169.738281 178.957031 170.902344 177.796875 172.339844 177.796875 C 173.773438 177.796875 174.9375 178.957031 174.9375 180.386719 L 174.9375 182.976562 C 174.9375 184.40625 173.773438 185.566406 172.339844 185.566406 Z M 193.128906 185.566406 C 191.691406 185.566406 190.53125 184.40625 190.53125 182.976562 L 190.53125 180.386719 C 190.53125 178.957031 191.691406 177.796875 193.128906 177.796875 C 194.566406 177.796875 195.730469 178.957031 195.730469 180.386719 L 195.730469 182.976562 C 195.730469 184.40625 194.566406 185.566406 193.128906 185.566406 Z M 193.128906 185.566406 " fill-opacity="1" fill-rule="nonzero"/><path fill="#c1694f" d="M 185.332031 194.628906 C 185.332031 195.34375 184.75 195.921875 184.035156 195.921875 L 181.433594 195.921875 C 180.71875 195.921875 180.136719 195.34375 180.136719 194.628906 C 180.136719 193.914062 180.71875 193.332031 181.433594 193.332031 L 184.035156 193.332031 C 184.75 193.332031 185.332031 193.914062 185.332031 194.628906 Z M 185.332031 194.628906 " fill-opacity="1" fill-rule="nonzero"/><path fill="#292f33" d="M 155.851562 179.839844 C 156.238281 180.21875 158.160156 181.367188 158.546875 182.515625 C 158.929688 183.664062 159.703125 190.164062 162.011719 192.078125 C 164.390625 194.050781 173.367188 193.316406 175.089844 192.464844 C 178.933594 190.554688 179.40625 185.21875 180.089844 182.515625 C 180.472656 180.984375 182.78125 180.984375 182.78125 180.984375 C 182.78125 180.984375 185.089844 180.984375 185.472656 182.515625 C 186.15625 185.21875 186.628906 190.554688 190.472656 192.460938 C 192.195312 193.316406 201.171875 194.050781 203.558594 192.082031 C 205.863281 190.167969 206.632812 183.664062 207.015625 182.515625 C 207.398438 181.367188 209.324219 180.222656 209.707031 179.839844 C 210.089844 179.457031 210.089844 177.925781 209.707031 177.542969 C 208.9375 176.777344 199.863281 176.09375 190.089844 177.160156 C 188.140625 177.371094 187.398438 177.921875 182.78125 177.921875 C 178.164062 177.921875 177.421875 177.367188 175.472656 177.160156 C 165.703125 176.09375 156.625 176.777344 155.855469 177.542969 C 155.46875 177.925781 155.46875 179.457031 155.851562 179.839844 Z M 155.851562 179.839844 " fill-opacity="1" fill-rule="evenodd"/><path fill="#66757f" d="M 156.375 163.285156 C 156.375 163.285156 159.90625 140.238281 171.792969 141.609375 C 180.921875 142.660156 184.5 143.746094 192.152344 141.859375 C 197.210938 140.613281 202.714844 144.800781 206.035156 153.199219 C 208.15625 158.554688 209.214844 163.660156 209.214844 163.660156 C 209.214844 163.660156 219.449219 162.664062 220.039062 168.144531 C 220.632812 173.628906 208.726562 180.355469 178.746094 180.355469 C 161.941406 180.355469 144.605469 174.25 143.78125 169.144531 C 142.960938 164.035156 156.375 163.285156 156.375 163.285156 Z M 156.375 163.285156 " fill-opacity="1" fill-rule="nonzero"/><path fill="#292f33" d="M 157.070312 160.0625 C 157.070312 160.0625 156.367188 162.921875 156.015625 164.90625 C 155.660156 166.894531 156.601562 168.261719 163.042969 169.628906 C 171.585938 171.441406 190.800781 171.421875 202.179688 168.636719 C 206.753906 167.519531 209.679688 166.773438 209.332031 164.539062 C 208.894531 161.773438 208.820312 161.777344 207.925781 158.820312 C 207.925781 158.820312 204.085938 160.121094 199.015625 161.308594 C 192.105469 162.921875 173.121094 163.667969 163.980469 161.679688 C 159.109375 160.621094 157.070312 160.0625 157.070312 160.0625 Z M 156.714844 196.191406 C 155.796875 196.566406 164.308594 199.757812 176.15625 199.964844 C 188.554688 200.183594 192.359375 200.972656 189.53125 203.742188 C 186.550781 206.65625 187.316406 211.234375 187.527344 212.59375 C 187.738281 213.949219 192.847656 217.554688 193.265625 219.21875 C 193.683594 220.890625 190.070312 234.65625 190.070312 234.65625 L 167.386719 234.003906 C 160.71875 211.101562 159.890625 211.992188 156.714844 198.777344 C 156.089844 196.167969 156.714844 196.191406 156.714844 196.191406 Z M 156.714844 196.191406 " fill-opacity="1" fill-rule="nonzero"/><path fill="#66757f" d="M 154.117188 196.296875 C 153.195312 196.671875 161.707031 199.863281 173.558594 200.070312 C 185.957031 200.289062 189.757812 201.082031 186.933594 203.847656 C 183.953125 206.761719 185.207031 211.339844 185.417969 212.699219 C 185.628906 214.054688 190.25 217.660156 190.667969 219.328125 C 191.085938 220.996094 187.46875 234.761719 187.46875 234.761719 L 164.78125 234.109375 C 158.117188 211.210938 157.289062 212.097656 154.113281 198.886719 C 153.492188 196.273438 154.117188 196.296875 154.117188 196.296875 Z M 154.117188 196.296875 " fill-opacity="1" fill-rule="nonzero"/><path fill="#292f33" d="M 208.859375 196.191406 C 209.78125 196.566406 201.269531 199.757812 189.421875 199.964844 C 177.023438 200.183594 173.21875 200.972656 176.046875 203.742188 C 179.027344 206.65625 183.78125 211.230469 183.574219 212.585938 C 183.363281 213.945312 172.730469 217.554688 172.3125 219.21875 C 171.894531 220.890625 175.507812 234.65625 175.507812 234.65625 L 198.195312 234.003906 C 204.859375 211.101562 205.6875 211.992188 208.859375 198.777344 C 209.484375 196.167969 208.859375 196.191406 208.859375 196.191406 Z M 208.859375 196.191406 " fill-opacity="1" fill-rule="nonzero"/><path fill="#66757f" d="M 211.214844 196.191406 C 212.132812 196.566406 203.621094 199.757812 191.777344 199.964844 C 179.375 200.183594 175.574219 200.972656 178.402344 203.742188 C 181.378906 206.65625 186.140625 211.230469 185.929688 212.585938 C 185.71875 213.945312 175.085938 217.554688 174.667969 219.21875 C 174.25 220.890625 177.863281 234.65625 177.863281 234.65625 L 200.359375 234.679688 C 207.027344 211.78125 208.042969 211.992188 211.21875 198.777344 C 211.839844 196.167969 211.214844 196.191406 211.214844 196.191406 Z M 211.214844 196.191406 " fill-opacity="1" fill-rule="nonzero"/><path fill="#42484c" d="M 234.558594 178.78125 L 240.871094 174.363281 L 260.3125 202.128906 L 254 206.546875 Z M 234.558594 178.78125 " fill-opacity="1" fill-rule="nonzero"/><g clip-path="url(#id3)"><path fill="#66757f" d="M 243.265625 176.441406 L 235.691406 181.746094 C 235 182.234375 234.03125 182.058594 233.546875 181.367188 C 233.0625 180.675781 233.234375 179.707031 233.925781 179.222656 L 241.5 173.917969 C 242.191406 173.433594 243.160156 173.605469 243.644531 174.296875 C 244.128906 174.992188 243.960938 175.957031 243.265625 176.441406 Z M 263.460938 199.914062 L 250.839844 208.753906 C 250.148438 209.238281 249.179688 209.066406 248.695312 208.375 C 248.210938 207.679688 248.382812 206.714844 249.074219 206.230469 L 261.695312 197.390625 C 262.390625 196.90625 263.355469 197.078125 263.839844 197.769531 C 264.328125 198.464844 264.15625 199.429688 263.460938 199.914062 Z M 263.460938 199.914062 " fill-opacity="1" fill-rule="nonzero"/></g><path fill="#000000" d="M 252.734375 207.429688 L 261.574219 201.242188 L 277.472656 223.960938 L 268.640625 230.148438 Z M 238.09375 183.828125 L 244.402344 179.410156 L 246.167969 181.9375 L 239.859375 186.351562 Z M 241.628906 188.875 L 247.9375 184.457031 L 249.703125 186.984375 L 243.394531 191.402344 Z M 245.160156 193.925781 L 251.472656 189.507812 L 253.242188 192.035156 L 246.929688 196.453125 Z M 248.695312 198.976562 L 255.007812 194.558594 L 256.773438 197.082031 L 250.464844 201.5 Z M 248.695312 198.976562 " fill-opacity="1" fill-rule="nonzero"/><path fill="#292f33" d="M 303.203125 186.398438 C 303.203125 186.398438 315.285156 195.957031 310.050781 207.535156 C 310.054688 207.535156 296.058594 200.394531 303.203125 186.398438 Z M 303.203125 186.398438 " fill-opacity="1" fill-rule="nonzero"/><path fill="#000000" d="M 311.265625 203.199219 C 311.855469 198.152344 309.566406 193.757812 307.273438 190.722656 C 304.914062 189.597656 302.902344 189.046875 302.136719 188.867188 C 302.011719 189.207031 301.949219 189.527344 301.851562 189.863281 C 302.277344 197.996094 307.070312 201.617188 311.265625 203.199219 Z M 311.265625 203.199219 " fill-opacity="1" fill-rule="nonzero"/><g clip-path="url(#id4)"><path fill="#292f33" d="M 302.125 185.96875 C 302.125 185.96875 317.238281 188.949219 317.875 201.636719 C 317.875 201.636719 302.164062 201.679688 302.125 185.96875 Z M 329.855469 235.265625 L 329.855469 229.105469 C 329.855469 218.894531 321.582031 210.617188 311.367188 210.617188 L 262.070312 210.617188 C 251.859375 210.617188 243.582031 218.894531 243.582031 229.105469 L 243.582031 235.265625 Z M 329.855469 235.265625 " fill-opacity="1" fill-rule="nonzero"/></g><path fill="#292f33" d="M 270.691406 206.769531 L 302.746094 206.769531 L 302.746094 219.859375 L 270.691406 219.859375 Z M 270.691406 206.769531 " fill-opacity="1" fill-rule="nonzero"/><path fill="#292f33" d="M 274.394531 207.535156 L 299.042969 207.535156 C 299.042969 207.535156 295.90625 229.105469 286.71875 229.105469 C 277.53125 229.105469 274.394531 207.535156 274.394531 207.535156 " fill-opacity="1" fill-rule="nonzero"/><path fill="#292f33" d="M 273.285156 216.898438 C 278.65625 220.804688 282.058594 222.945312 286.71875 222.945312 C 291.375 222.945312 294.777344 220.800781 300.148438 216.898438 L 300.148438 199.183594 L 273.28125 199.183594 L 273.28125 216.898438 Z M 273.285156 216.898438 " fill-opacity="1" fill-rule="nonzero"/><path fill="#000000" d="M 273.257812 204.371094 C 277.007812 208.605469 281.652344 209.75 286.707031 209.75 C 291.757812 209.75 296.398438 208.601562 300.148438 204.371094 L 300.148438 193.613281 L 273.257812 193.613281 Z M 273.257812 204.371094 " fill-opacity="1" fill-rule="nonzero"/><path fill="#292f33" d="M 266.519531 173.445312 C 266.519531 177.90625 264.257812 181.523438 261.46875 181.523438 C 258.679688 181.523438 256.417969 177.90625 256.417969 173.445312 C 256.417969 168.984375 258.679688 165.363281 261.46875 165.363281 C 264.257812 165.359375 266.519531 168.980469 266.519531 173.445312 M 317.015625 173.445312 C 317.015625 177.90625 314.757812 181.523438 311.964844 181.523438 C 309.175781 181.523438 306.914062 177.90625 306.914062 173.445312 C 306.914062 168.984375 309.175781 165.363281 311.964844 165.363281 C 314.757812 165.359375 317.015625 168.980469 317.015625 173.445312 " fill-opacity="1" fill-rule="nonzero"/><g clip-path="url(#id5)"><path fill="#292f33" d="M 260.457031 175.304688 C 260.457031 152.074219 268.230469 139.75 286.71875 139.75 C 305.207031 139.75 312.976562 152.074219 312.976562 175.304688 C 312.976562 193.242188 301.222656 207.78125 286.71875 207.78125 C 272.214844 207.78125 260.457031 193.242188 260.457031 175.304688 " fill-opacity="1" fill-rule="nonzero"/></g><g clip-path="url(#id6)"><path fill="#66757f" d="M 265.148438 210.617188 C 265.148438 213.699219 268.230469 219.859375 274.394531 226.023438 C 279.265625 230.894531 282.769531 235.265625 282.769531 235.265625 C 285.226562 235.25 288.625 235.253906 291.183594 235.261719 C 288.4375 229.039062 283.550781 224.570312 281.078125 222.097656 C 278 219.015625 271.3125 213.699219 271.3125 207.535156 C 271.3125 204.453125 265.148438 210.617188 265.148438 210.617188 " fill-opacity="1" fill-rule="nonzero"/></g><g clip-path="url(#id7)"><path fill="#292f33" d="M 282.769531 235.265625 L 291.164062 235.261719 C 289.585938 231.6875 287.308594 228.710938 285.1875 226.335938 C 283.628906 228.226562 282.128906 230.484375 280.859375 232.992188 C 282.054688 234.375 282.769531 235.265625 282.769531 235.265625 Z M 282.769531 235.265625 " fill-opacity="1" fill-rule="nonzero"/></g><g clip-path="url(#id8)"><path fill="#66757f" d="M 308.285156 210.617188 C 308.285156 213.699219 305.207031 219.859375 299.042969 226.023438 C 294.171875 230.894531 291.339844 235.265625 291.339844 235.265625 C 288.5625 235.253906 286.972656 235.261719 282.097656 235.265625 C 284.839844 229.042969 289.886719 224.570312 292.355469 222.097656 C 295.4375 219.015625 302.125 213.699219 302.125 207.535156 C 302.125 204.453125 308.285156 210.617188 308.285156 210.617188 " fill-opacity="1" fill-rule="nonzero"/></g><path fill="#ffdc5d" d="M 286.71875 166.589844 C 277.488281 166.589844 261.710938 160.292969 264.953125 172.691406 C 266.84375 179.925781 269.320312 181.566406 275.660156 180.71875 C 282.203125 179.847656 281.792969 177.589844 286.429688 177.589844 C 291.0625 177.589844 291.234375 179.847656 297.78125 180.71875 C 304.121094 181.5625 306.59375 179.925781 308.488281 172.691406 C 311.726562 160.292969 295.945312 166.589844 286.71875 166.589844 Z M 286.71875 166.589844 " fill-opacity="1" fill-rule="nonzero"/><path fill="#662113" d="M 274.394531 176.722656 C 272.699219 176.722656 271.3125 175.335938 271.3125 173.640625 L 271.3125 170.5625 C 271.3125 168.867188 272.699219 167.480469 274.394531 167.480469 C 276.089844 167.480469 277.472656 168.867188 277.472656 170.5625 L 277.472656 173.640625 C 277.472656 175.335938 276.089844 176.722656 274.394531 176.722656 M 299.042969 176.722656 C 297.347656 176.722656 295.960938 175.335938 295.960938 173.640625 L 295.960938 170.5625 C 295.960938 168.867188 297.347656 167.480469 299.042969 167.480469 C 300.738281 167.480469 302.125 168.867188 302.125 170.5625 L 302.125 173.640625 C 302.125 175.335938 300.738281 176.722656 299.042969 176.722656 " fill-opacity="1" fill-rule="nonzero"/></svg>